HIERARCHY
ROOT Model
{
	OFFSET 0 0 0
	CHANNELS 6 Xposition Yposition Zposition Zrotation Xrotation Yrotation
	JOINT Model1
	{
		OFFSET 0 -2.25479 2.99383
		CHANNELS 3 Zrotation Xrotation Yrotation
		JOINT Model2
		{
			OFFSET 12.111 0 0
			CHANNELS 3 Zrotation Xrotation Yrotation
			JOINT Model3
			{
				OFFSET 11.5502 0 0
				CHANNELS 3 Zrotation Xrotation Yrotation
				JOINT Model4
				{
					OFFSET 11.781 0 0
					CHANNELS 3 Zrotation Xrotation Yrotation
					JOINT Model5
					{
						OFFSET 20.0601 0 0
						CHANNELS 3 Zrotation Xrotation Yrotation
						JOINT Model6
						{
							OFFSET 11.1962 0 0
							CHANNELS 3 Zrotation Xrotation Yrotation
							End Site
							{
								OFFSET 0 0 0
							}
						}
					}
					JOINT Model7
					{
						OFFSET 10.8223 0.417534 3.51114
						CHANNELS 3 Zrotation Xrotation Yrotation
						JOINT Model8
						{
							OFFSET -6.07943 0 0
							CHANNELS 3 Zrotation Xrotation Yrotation
							JOINT Model9
							{
								OFFSET -0.277416 10.39 -0.0512447
								CHANNELS 3 Zrotation Xrotation Yrotation
								JOINT Model10
								{
									OFFSET -3.4391 -0.282043 1.86678
									CHANNELS 3 Zrotation Xrotation Yrotation
									JOINT Model11
									{
										OFFSET 13.0269 0 0
										CHANNELS 3 Zrotation Xrotation Yrotation
										JOINT Model12
										{
											OFFSET 10.8866 0 0
											CHANNELS 3 Zrotation Xrotation Yrotation
											JOINT Model13
											{
												OFFSET 16.7317 0 0
												CHANNELS 3 Zrotation Xrotation Yrotation
												JOINT Model14
												{
													OFFSET 11.8292 0 0
													CHANNELS 3 Zrotation Xrotation Yrotation
													JOINT Model15
													{
														OFFSET 4.82751 -3.73566 -0.836517
														CHANNELS 3 Zrotation Xrotation Yrotation
														JOINT Model16
														{
															OFFSET 3.75311 -0.0582886 -0.0186462
															CHANNELS 3 Zrotation Xrotation Yrotation
															JOINT Model17
															{
																OFFSET 2.88688 0.0192337 0.0148029
																CHANNELS 3 Zrotation Xrotation Yrotation
																End Site
																{
																	OFFSET 0 0 0
																}
															}
														}
													}
													JOINT Model18
													{
														OFFSET 9.72197 -3.06458 0.238768
														CHANNELS 3 Zrotation Xrotation Yrotation
														JOINT Model19
														{
															OFFSET 4.61131 0 0
															CHANNELS 3 Zrotation Xrotation Yrotation
															JOINT Model20
															{
																OFFSET 2.8969 -7.62939e-006 0
																CHANNELS 3 Zrotation Xrotation Yrotation
																End Site
																{
																	OFFSET 0 0 0
																}
															}
														}
													}
													JOINT Model21
													{
														OFFSET 9.54431 -0.745064 0.588938
														CHANNELS 3 Zrotation Xrotation Yrotation
														JOINT Model22
														{
															OFFSET 5.33978 0 0
															CHANNELS 3 Zrotation Xrotation Yrotation
															JOINT Model23
															{
																OFFSET 3.03619 7.62939e-006 0
																CHANNELS 3 Zrotation Xrotation Yrotation
																End Site
																{
																	OFFSET 0 0 0
																}
															}
														}
													}
													JOINT Model24
													{
														OFFSET 9.47759 1.51286 0.485121
														CHANNELS 3 Zrotation Xrotation Yrotation
														JOINT Model25
														{
															OFFSET 4.96136 7.62939e-006 0
															CHANNELS 3 Zrotation Xrotation Yrotation
															JOINT Model26
															{
																OFFSET 2.51966 0 0
																CHANNELS 3 Zrotation Xrotation Yrotation
																End Site
																{
																	OFFSET 0 0 0
																}
															}
														}
													}
													JOINT Model27
													{
														OFFSET 9.34247 3.34117 -0.239281
														CHANNELS 3 Zrotation Xrotation Yrotation
														JOINT Model28
														{
															OFFSET 3.2826 2.28882e-005 0
															CHANNELS 3 Zrotation Xrotation Yrotation
															JOINT Model29
															{
																OFFSET 2.1292 0 0
																CHANNELS 3 Zrotation Xrotation Yrotation
																End Site
																{
																	OFFSET 0 0 0
																}
															}
														}
													}
												}
											}
										}
									}
								}
							}
						}
					}
					JOINT Model30
					{
						OFFSET 10.8223 0.4179 -3.51107
						CHANNELS 3 Zrotation Xrotation Yrotation
						JOINT Model31
						{
							OFFSET 6.07943 0 0
							CHANNELS 3 Zrotation Xrotation Yrotation
							JOINT Model32
							{
								OFFSET 0.277416 -10.39 0.0512447
								CHANNELS 3 Zrotation Xrotation Yrotation
								JOINT Model33
								{
									OFFSET 3.4391 0.282043 -1.86678
									CHANNELS 3 Zrotation Xrotation Yrotation
									JOINT Model34
									{
										OFFSET -13.0269 0 0
										CHANNELS 3 Zrotation Xrotation Yrotation
										JOINT Model35
										{
											OFFSET -10.8866 0 0
											CHANNELS 3 Zrotation Xrotation Yrotation
											JOINT Model36
											{
												OFFSET -16.7317 0 0
												CHANNELS 3 Zrotation Xrotation Yrotation
												JOINT Model37
												{
													OFFSET -11.8292 0 0
													CHANNELS 3 Zrotation Xrotation Yrotation
													JOINT Model38
													{
														OFFSET -4.82751 3.73566 0.836516
														CHANNELS 3 Zrotation Xrotation Yrotation
														JOINT Model39
														{
															OFFSET -3.75311 0.0582886 0.0186434
															CHANNELS 3 Zrotation Xrotation Yrotation
															JOINT Model40
															{
																OFFSET -2.88688 -0.0192337 -0.014802
																CHANNELS 3 Zrotation Xrotation Yrotation
																End Site
																{
																	OFFSET 0 0 0
																}
															}
														}
													}
													JOINT Model41
													{
														OFFSET -9.72197 3.06459 -0.23877
														CHANNELS 3 Zrotation Xrotation Yrotation
														JOINT Model42
														{
															OFFSET -4.6113 0 0
															CHANNELS 3 Zrotation Xrotation Yrotation
															JOINT Model43
															{
																OFFSET -2.8969 0 0
																CHANNELS 3 Zrotation Xrotation Yrotation
																End Site
																{
																	OFFSET 0 0 0
																}
															}
														}
													}
													JOINT Model44
													{
														OFFSET -9.5443 0.745064 -0.588939
														CHANNELS 3 Zrotation Xrotation Yrotation
														JOINT Model45
														{
															OFFSET -5.33978 0 0
															CHANNELS 3 Zrotation Xrotation Yrotation
															JOINT Model46
															{
																OFFSET -3.03619 -1.52588e-005 0
																CHANNELS 3 Zrotation Xrotation Yrotation
																End Site
																{
																	OFFSET 0 0 0
																}
															}
														}
													}
													JOINT Model47
													{
														OFFSET -9.47759 -1.51286 -0.485122
														CHANNELS 3 Zrotation Xrotation Yrotation
														JOINT Model48
														{
															OFFSET -4.96136 -1.52588e-005 0
															CHANNELS 3 Zrotation Xrotation Yrotation
															JOINT Model49
															{
																OFFSET -2.51966 0 0
																CHANNELS 3 Zrotation Xrotation Yrotation
																End Site
																{
																	OFFSET 0 0 0
																}
															}
														}
													}
													JOINT Model50
													{
														OFFSET -9.34246 -3.34118 0.239278
														CHANNELS 3 Zrotation Xrotation Yrotation
														JOINT Model51
														{
															OFFSET -3.2826 -2.28882e-005 0
															CHANNELS 3 Zrotation Xrotation Yrotation
															JOINT Model52
															{
																OFFSET -2.1292 0 0
																CHANNELS 3 Zrotation Xrotation Yrotation
																End Site
																{
																	OFFSET 0 0 0
																}
															}
														}
													}
												}
											}
										}
									}
								}
							}
						}
					}
				}
			}
		}
	}
	JOINT Model53
	{
		OFFSET 4.38026 -2.14632 -1.11516
		CHANNELS 3 Zrotation Xrotation Yrotation
		JOINT Model54
		{
			OFFSET 0 0 4.94999
			CHANNELS 3 Zrotation Xrotation Yrotation
			JOINT Model55
			{
				OFFSET 18.5642 0 0
				CHANNELS 3 Zrotation Xrotation Yrotation
				JOINT Model56
				{
					OFFSET 21.2884 0 1.14441e-005
					CHANNELS 3 Zrotation Xrotation Yrotation
					JOINT Model57
					{
						OFFSET 30.261 0 0
						CHANNELS 3 Zrotation Xrotation Yrotation
						JOINT Model58
						{
							OFFSET 11.7259 0 0
							CHANNELS 3 Zrotation Xrotation Yrotation
							JOINT Model59
							{
								OFFSET 10.682 0 0
								CHANNELS 3 Zrotation Xrotation Yrotation
								End Site
								{
									OFFSET 0 0 0
								}
							}
						}
					}
				}
			}
		}
	}
	JOINT Model60
	{
		OFFSET -4.38026 -2.14632 -1.11516
		CHANNELS 3 Zrotation Xrotation Yrotation
		JOINT Model61
		{
			OFFSET 0 0 -4.94999
			CHANNELS 3 Zrotation Xrotation Yrotation
			JOINT Model62
			{
				OFFSET -18.5642 0 0
				CHANNELS 3 Zrotation Xrotation Yrotation
				JOINT Model63
				{
					OFFSET -21.2884 0 -1.19209e-005
					CHANNELS 3 Zrotation Xrotation Yrotation
					JOINT Model64
					{
						OFFSET -30.261 0 0
						CHANNELS 3 Zrotation Xrotation Yrotation
						JOINT Model65
						{
							OFFSET -11.7259 0 0
							CHANNELS 3 Zrotation Xrotation Yrotation
							JOINT Model66
							{
								OFFSET -10.682 0 0
								CHANNELS 3 Zrotation Xrotation Yrotation
								End Site
								{
									OFFSET 0 0 0
								}
							}
						}
					}
				}
			}
		}
	}
}
MOTION
Frames: 5
Frame Time: 0.033333
3.72311 173.136 13.1259 -133.346 -66.8801 -133.148 -180 4.29621e-031 -90 3.92283 -1.99635 -0.889782 7.82145 -4.04916 -1.64227 7.82145 -4.04873 -1.64233 31.0522 11.4156 11.2233 -21.1732 14.0998 -11.3999 120.092 75.5343 58.4939 14.4242 13.5235 0.321581 -167.277 84.4999 48.8109 -163.511 4.87252 -9.41766 -1.26963e-005 39.5568 3.97288e-005 -59.5926 26.9553 0.587687 1.73849e-007 39.7635 1.01826e-006 -9.60902 1.50119 -17.7164 -72.0648 39.0385 39.3397 33.3638 2.10362 14.835 0.588947 0.308273 6.35287 -99.6409 81.413 100.35 -0.0181409 2.77977e-005 -0.117315 -0.124139 0.00241115 -0.799296 -79.8382 79.5773 80.5374 -0.000225757 -0.000220904 2.22053e-005 -0.000956201 0.00012292 -2.73059e-005 -66.7416 80.4058 67.2171 -0.000437112 1.59646e-005 -2.73107e-005 -0.000136577 -0.000109265 -5.4628e-005 -6.42159 81.2158 8.01779 -0.000218545 1.6922e-005 0.000212146 0.000901613 -0.000184783 -0.000218557 -59.9282 75.5373 58.5147 5.48325 15.4375 3.33435 -167.277 84.4999 48.8109 -150.031 -12.6505 10.1623 7.11929e-006 -0.283581 2.90487e-005 -9.0045 47.0423 -1.6887 -2.89836e-005 70.4338 2.00221e-005 -26.2517 10.9729 -44.9254 -72.0648 39.0385 39.3397 33.3638 2.10361 14.835 0.588946 0.308273 6.35287 -99.6409 81.413 100.35 -0.0181409 3.00734e-005 -0.117315 -0.124139 0.00241112 -0.799296 -79.8382 79.5773 80.5374 -0.000260647 -0.000218571 2.35664e-005 -0.000956227 0.00012299 -2.73262e-005 -66.7416 80.4058 67.2171 -0.000437133 1.48765e-005 -2.73245e-005 -0.000136605 -0.00010929 -5.46466e-005 -6.42159 81.2158 8.01779 -0.000218567 1.95735e-005 0.000212294 0.000901582 -0.000191252 -0.000218569 0.000811311 0.56661 89.91 0.995457 -21.4533 -13.6908 -5.4296e-006 -20.3779 -7.15046e-007 37.6692 6.29727 -0.00438088 5.44473e-007 9.37492 4.78082e-007 -71.0366 11.8353 -7.04873 -35.4947 2.70323e-005 -5.50124e-006 -180 -0.566579 -90.09 -6.40984 6.18714 2.81882 1.05701e-006 7.21182 -1.24095e-008 40.0794 -2.20443 -2.39071 1.9346e-007 -3.38528 -6.035e-007 -69.036 0.870697 -1.41637 -35.4947 -3.62769e-005 2.01773e-006 
4.03158 173.052 12.834 -125.119 -62.8246 -124.349 -180 4.29621e-031 -90 3.90691 -2.37207 -0.965425 7.78349 -4.80461 -1.76902 7.78348 -4.80418 -1.76908 29.9703 13.9681 11.5391 -19.1002 17.1249 -13.7825 120.092 75.5343 58.4939 15.1335 13.837 0.177602 -167.277 84.4999 48.8109 -167.524 5.28895 -10.1041 -1.26197e-005 39.4715 3.968e-005 -59.1467 26.7695 0.58402 1.80276e-007 39.4843 1.01417e-006 -9.56659 1.47578 -17.5008 -72.0648 39.0385 39.3397 33.3638 2.10362 14.835 0.588947 0.308273 6.35287 -99.6409 81.413 100.35 -0.0181409 2.77977e-005 -0.117315 -0.124139 0.00241115 -0.799296 -79.8382 79.5773 80.5374 -0.000225757 -0.000220904 2.22053e-005 -0.000956201 0.00012292 -2.73059e-005 -66.7416 80.4058 67.2171 -0.000437112 1.59646e-005 -2.73107e-005 -0.000136577 -0.000109265 -5.4628e-005 -6.42159 81.2158 8.01779 -0.000218545 1.6922e-005 0.000212146 0.000901613 -0.000184783 -0.000218557 -59.9282 75.5373 58.5147 4.12449 14.4196 3.4792 -167.277 84.4999 48.8109 -155.147 -14.4081 7.33099 7.12972e-006 -0.304171 2.90488e-005 1.45443 47.9679 -2.08234 -3.08018e-005 72.0385 2.17439e-005 -23.3294 10.488 -47.8671 -72.0648 39.0385 39.3397 33.3638 2.10361 14.835 0.588946 0.308273 6.35287 -99.6409 81.413 100.35 -0.0181409 3.00734e-005 -0.117315 -0.124139 0.00241112 -0.799296 -79.8382 79.5773 80.5374 -0.000260647 -0.000218571 2.35664e-005 -0.000956227 0.00012299 -2.73262e-005 -66.7416 80.4058 67.2171 -0.000437133 1.48765e-005 -2.73245e-005 -0.000136605 -0.00010929 -5.46466e-005 -6.42159 81.2158 8.01779 -0.000218567 1.95735e-005 0.000212294 0.000901582 -0.000191252 -0.000218569 0.000811311 0.56661 89.91 1.30362 -21.6708 -13.2956 -5.43788e-006 -20.997 -7.17969e-007 37.912 4.51662 -0.00440858 5.66909e-007 6.70349 4.74944e-007 -71.8542 10.7922 -6.44415 -35.4947 2.56039e-005 -5.13526e-006 -180 -0.566579 -90.09 -8.0051 6.9518 3.25777 1.05721e-006 8.11229 -1.24358e-008 40.4449 -0.691013 -2.01285 2.17388e-007 -1.11342 -6.02561e-007 -68.4568 1.55878 -1.77054 -35.4947 -3.54692e-005 1.97653e-006 
4.43787 172.976 12.5767 -118.819 -58.0473 -117.494 -180 4.29621e-031 -90 3.92217 -2.7969 -1.04952 7.80663 -5.65916 -1.90827 7.80662 -5.65873 -1.90833 28.5253 16.6077 12.0376 -16.7061 20.1309 -16.2402 120.092 75.5343 58.4939 15.9197 14.3009 0.0330342 -167.277 84.4999 48.8109 -171.407 5.74095 -10.5333 -1.24572e-005 39.29 3.95769e-005 -58.373 26.6685 0.578712 1.8375e-007 39.3326 1.01196e-006 -9.63294 1.50711 -17.7446 -72.0648 39.0385 39.3397 33.3638 2.10362 14.835 0.588947 0.308273 6.35287 -99.6409 81.413 100.35 -0.0181409 2.77977e-005 -0.117315 -0.124139 0.00241115 -0.799296 -79.8382 79.5773 80.5374 -0.000225757 -0.000220904 2.22053e-005 -0.000956201 0.00012292 -2.73059e-005 -66.7416 80.4058 67.2171 -0.000437112 1.59646e-005 -2.73107e-005 -0.000136577 -0.000109265 -5.4628e-005 -6.42159 81.2158 8.01779 -0.000218545 1.6922e-005 0.000212146 0.000901613 -0.000184783 -0.000218557 -59.9282 75.5373 58.5147 2.51402 13.3922 3.67232 -167.277 84.4999 48.8109 -154.536 -15.1904 5.89997 7.14196e-006 -0.328308 2.90488e-005 0.250622 48.2528 -2.06036 -3.13083e-005 72.4411 2.22262e-005 -23.8567 10.153 -45.616 -72.0648 39.0385 39.3397 33.3638 2.10361 14.835 0.588946 0.308273 6.35287 -99.6409 81.413 100.35 -0.0181409 3.00734e-005 -0.117315 -0.124139 0.00241112 -0.799296 -79.8382 79.5773 80.5374 -0.000260647 -0.000218571 2.35664e-005 -0.000956227 0.00012299 -2.73262e-005 -66.7416 80.4058 67.2171 -0.000437133 1.48765e-005 -2.73245e-005 -0.000136605 -0.00010929 -5.46466e-005 -6.42159 81.2158 8.01779 -0.000218567 1.95735e-005 0.000212294 0.000901582 -0.000191252 -0.000218569 0.000811311 0.56661 89.91 1.6983 -21.9883 -12.7919 -5.44943e-006 -21.8529 -7.2219e-007 38.0226 2.71441 -0.00444069 5.89366e-007 3.99996 4.72849e-007 -72.5777 9.43723 -5.71255 -35.4947 2.35826e-005 -4.66458e-006 -180 -0.566579 -90.09 -9.68812 7.73836 3.75347 1.05741e-006 9.03304 -1.2466e-008 40.6891 0.960747 -1.55262 2.43452e-007 1.36507 -6.02618e-007 -67.6107 2.42735 -2.22982 -35.4947 -3.46556e-005 1.93502e-006 
4.9375 172.893 12.3673 -114.046 -52.7222 -112.182 -180 4.29621e-031 -90 3.97774 -3.25311 -1.13899 7.90939 -6.57741 -2.05384 7.90939 -6.57698 -2.0539 26.6776 19.2769 12.6659 -14.0439 23.0312 -18.6314 120.092 75.5343 58.4939 16.8446 14.8395 -0.145482 -167.277 84.4999 48.8109 -174.94 6.11854 -10.4846 -1.20665e-005 38.8494 3.93307e-005 -57.235 26.8377 0.572298 1.77934e-007 39.5863 1.01566e-006 -9.62931 1.56601 -18.4335 -72.0648 39.0385 39.3397 33.3638 2.10362 14.835 0.588947 0.308273 6.35287 -99.6409 81.413 100.35 -0.0181409 2.77977e-005 -0.117315 -0.124139 0.00241115 -0.799296 -79.8382 79.5773 80.5374 -0.000225757 -0.000220904 2.22053e-005 -0.000956201 0.00012292 -2.73059e-005 -66.7416 80.4058 67.2171 -0.000437112 1.59646e-005 -2.73107e-005 -0.000136577 -0.000109265 -5.4628e-005 -6.42159 81.2158 8.01779 -0.000218545 1.6922e-005 0.000212146 0.000901613 -0.000184783 -0.000218557 -59.9282 75.5373 58.5147 0.802023 12.3658 3.86836 -167.277 84.4999 48.8109 -154.641 -15.8639 4.68484 7.14977e-006 -0.343717 2.90489e-005 0.262968 48.4359 -2.07636 -3.16674e-005 72.7162 2.25689e-005 -23.846 9.92208 -44.6961 -72.0648 39.0385 39.3397 33.3638 2.10361 14.835 0.588946 0.308273 6.35287 -99.6409 81.413 100.35 -0.0181409 3.00734e-005 -0.117315 -0.124139 0.00241112 -0.799296 -79.8382 79.5773 80.5374 -0.000260647 -0.000218571 2.35664e-005 -0.000956227 0.00012299 -2.73262e-005 -66.7416 80.4058 67.2171 -0.000437133 1.48765e-005 -2.73245e-005 -0.000136605 -0.00010929 -5.46466e-005 -6.42159 81.2158 8.01779 -0.000218567 1.95735e-005 0.000212294 0.000901582 -0.000191252 -0.000218569 0.000811311 0.56661 89.91 2.09815 -22.3963 -12.2392 -5.46373e-006 -22.8982 -7.27635e-007 38.1026 0.874166 -0.00447742 6.12144e-007 1.23945 4.71807e-007 -73.219 7.74827 -4.84632 -35.4947 2.09256e-005 -4.08266e-006 -180 -0.566579 -90.09 -11.4448 8.50637 4.29287 1.05761e-006 9.92763 -1.24985e-008 40.8433 2.6761 -1.0371 2.70569e-007 3.93801 -6.03873e-007 -66.5772 3.1725 -2.63786 -35.4947 -3.3836e-005 1.8932e-006 
5.51144 172.801 12.2194 -110.409 -46.9676 -108.005 -180 4.29621e-031 -90 4.07508 -3.71303 -1.22654 8.09549 -7.50372 -2.19195 8.09549 -7.50329 -2.19201 24.554 21.9268 13.2863 -11.2865 25.7719 -20.7925 120.092 75.5343 58.4939 17.9173 15.399 -0.371798 -167.277 84.4999 48.8109 -177.956 6.33916 -9.97502 -1.14469e-005 38.1395 3.8945e-005 -56.0005 27.0316 0.565136 1.71201e-007 39.8778 1.01996e-006 -9.84665 1.66791 -19.1787 -72.0648 39.0385 39.3397 33.3638 2.10362 14.835 0.588947 0.308273 6.35287 -99.6409 81.413 100.35 -0.0181409 2.77977e-005 -0.117315 -0.124139 0.00241115 -0.799296 -79.8382 79.5773 80.5374 -0.000225757 -0.000220904 2.22053e-005 -0.000956201 0.00012292 -2.73059e-005 -66.7416 80.4058 67.2171 -0.000437112 1.59646e-005 -2.73107e-005 -0.000136577 -0.000109265 -5.4628e-005 -6.42159 81.2158 8.01779 -0.000218545 1.6922e-005 0.000212146 0.000901613 -0.000184783 -0.000218557 -59.9282 75.5373 58.5147 -0.849102 11.3387 4.01977 -167.277 84.4999 48.8109 -154.797 -16.2844 3.91285 7.15432e-006 -0.352686 2.90489e-005 0.246618 48.1932 -2.05516 -3.11939e-005 72.3517 2.21171e-005 -24.0839 9.83946 -43.9507 -72.0648 39.0385 39.3397 33.3638 2.10361 14.835 0.588946 0.308273 6.35287 -99.6409 81.413 100.35 -0.0181409 3.00734e-005 -0.117315 -0.124139 0.00241112 -0.799296 -79.8382 79.5773 80.5374 -0.000260647 -0.000218571 2.35664e-005 -0.000956227 0.00012299 -2.73262e-005 -66.7416 80.4058 67.2171 -0.000437133 1.48765e-005 -2.73245e-005 -0.000136605 -0.00010929 -5.46466e-005 -6.42159 81.2158 8.01779 -0.000218567 1.95735e-005 0.000212294 0.000901582 -0.000191252 -0.000218569 0.000811311 0.56661 89.91 2.44807 -22.799 -11.6258 -5.47912e-006 -24.0048 -7.33758e-007 38.2069 -1.01929 -0.00451918 6.35533e-007 -1.60093 4.71881e-007 -73.7393 5.87223 -3.92001 -35.4947 1.75898e-005 -3.38292e-006 -180 -0.566579 -90.09 -13.2101 9.18951 4.81149 1.05779e-006 10.7368 -1.25307e-008 40.807 4.48601 -0.520556 2.99362e-007 6.65256 -6.06531e-007 -65.4718 3.06021 -2.57322 -35.4947 -3.30104e-005 1.85107e-006 
